<?xml version="1.0" standalone="no"?>
<!DOCTYPE svg PUBLIC "-//W3C//DTD SVG 20010904//EN"
 "http://www.w3.org/TR/2001/REC-SVG-20010904/DTD/svg10.dtd">
<svg version="1.0" xmlns="http://www.w3.org/2000/svg"
 width="1254.000000pt" height="1254.000000pt" viewBox="0 0 1254.000000 1254.000000"
 preserveAspectRatio="xMidYMid meet">

<g transform="translate(0.000000,1254.000000) scale(0.100000,-0.100000)"
fill="#000000" stroke="none">
<path d="M5415 11144 c-599 -92 -1058 -406 -1250 -853 -63 -147 -79 -227 -79
-391 0 -130 2 -153 25 -222 15 -42 24 -80 20 -86 -3 -5 -37 -33 -76 -62 -38
-29 -126 -109 -195 -179 -153 -155 -204 -185 -304 -186 l-68 0 5 -70 c7 -89
35 -180 100 -324 l50 -113 -32 -102 c-46 -140 -100 -251 -154 -317 -26 -31
-54 -76 -63 -100 -19 -53 -20 -164 -1 -234 13 -47 12 -56 -16 -150 -24 -82
-30 -118 -30 -205 0 -69 5 -121 15 -152 14 -41 14 -48 2 -48 -20 0 -18 -8 11
-42 26 -30 27 -40 26 -143 -1 -54 -9 -75 -75 -205 -221 -434 -212 -594 62
-1145 l60 -120 -39 -3 c-69 -6 -130 64 -116 134 7 36 -10 29 -23 -10 -35 -107
80 -248 190 -233 l39 5 94 -167 c187 -327 290 -555 347 -763 24 -89 29 -206
16 -374 -10 -130 -1 -182 51 -294 28 -57 55 -93 117 -155 77 -77 92 -86 282
-183 l202 -102 21 -77 c47 -168 99 -612 89 -758 l-3 -50 -81 -55 c-156 -106
-356 -199 -680 -316 -71 -25 -185 -66 -253 -90 -221 -80 -422 -164 -606 -254
-167 -82 -435 -234 -435 -246 0 -3 55 24 123 61 319 173 603 293 1097 465 374
130 576 220 745 332 l80 53 0 -170 c0 -158 2 -176 27 -250 45 -134 118 -245
243 -371 171 -172 372 -293 640 -384 613 -209 1396 -112 2008 250 313 184 613
493 756 778 73 145 104 251 109 379 3 69 0 124 -7 144 -6 18 -10 33 -8 35 1 1
45 -33 97 -77 257 -217 573 -389 1245 -677 154 -66 330 -143 390 -172 142 -67
175 -81 175 -75 0 9 -345 178 -570 280 -647 293 -876 415 -1129 605 -152 114
-264 225 -334 330 -232 353 -365 819 -393 1380 l-6 135 35 60 c49 84 66 150
77 300 6 86 18 160 35 220 32 111 133 366 214 543 34 73 61 137 61 142 0 5 37
41 83 82 204 181 265 262 331 443 20 55 61 159 91 230 29 72 63 164 75 205 40
144 36 333 -11 486 -20 64 -20 65 0 157 10 50 24 124 31 164 l12 71 34 -66
c45 -86 101 -143 183 -186 53 -28 171 -63 171 -50 0 1 -26 29 -58 61 -48 47
-63 70 -79 123 -43 135 -38 221 32 496 56 218 69 317 62 474 -6 146 -25 218
-95 355 -58 112 -182 243 -279 294 l-63 32 22 29 c23 32 35 115 24 173 -9 49
-61 123 -110 156 -51 36 -146 64 -192 59 -40 -5 -41 -1 -14 48 44 77 71 183
77 296 4 62 2 108 -3 107 -5 0 -23 -21 -40 -47 -27 -42 -138 -132 -148 -121
-2 2 11 42 29 89 63 160 67 326 13 452 l-22 51 -11 -54 c-20 -97 -59 -147
-151 -193 -85 -42 -174 -53 -290 -33 -194 32 -250 57 -884 385 -379 196 -709
302 -1093 352 -190 24 -538 26 -682 4z m760 -54 c375 -61 656 -156 1035 -352
575 -297 669 -339 834 -368 217 -37 412 33 473 172 15 33 18 36 27 21 6 -10
10 -67 9 -128 -2 -195 -70 -358 -211 -507 -84 -87 -146 -131 -235 -163 l-61
-22 -80 30 c-45 16 -133 43 -196 59 -167 43 -378 48 -705 18 -193 -18 -277
-21 -430 -17 -226 7 -337 27 -615 113 -457 140 -551 165 -715 184 -328 37
-616 -24 -855 -182 -87 -57 -218 -190 -260 -263 -39 -68 -39 -68 -66 67 -58
284 84 659 344 910 115 111 191 166 332 241 177 94 360 156 570 193 206 36
566 33 805 -6z m2498 -947 c-21 -210 -165 -454 -314 -531 l-44 -24 -109 66
c-60 36 -113 66 -117 66 -25 0 -3 17 36 29 95 28 246 153 317 262 19 30 40 50
57 54 36 9 125 69 148 99 26 36 31 32 26 -21z m-3283 -54 c143 -24 257 -54
476 -124 384 -123 530 -154 769 -162 121 -4 215 0 382 16 295 28 316 26 138
-14 -240 -55 -311 -66 -460 -72 -229 -9 -402 23 -770 145 -352 117 -571 162
-791 162 -333 0 -633 -116 -876 -340 -38 -34 -68 -59 -68 -55 0 14 98 140 137
176 266 249 632 341 1063 268z m-2 -105 c145 -22 279 -57 517 -134 397 -129
549 -157 795 -147 157 6 260 22 440 67 281 70 515 65 760 -17 304 -101 578
-315 757 -590 69 -105 161 -300 202 -423 102 -315 119 -671 50 -1087 l-12 -72
-37 62 c-130 216 -385 236 -650 53 -25 -17 -61 -39 -80 -49 -128 -68 -378
-317 -466 -463 -11 -18 -13 -18 -65 4 -30 13 -91 38 -137 55 -78 30 -83 34
-78 57 39 177 53 462 32 653 -32 288 -97 453 -249 631 -45 53 -103 122 -128
152 -59 70 -74 120 -65 222 15 184 18 378 6 435 -15 74 -80 203 -121 242 -28
27 -26 23 14 -38 82 -119 109 -256 87 -442 -6 -55 -14 -148 -17 -206 -5 -99
-4 -110 19 -160 15 -32 69 -102 133 -174 125 -140 181 -230 224 -359 54 -163
66 -261 65 -541 0 -191 -4 -274 -17 -350 -17 -95 -17 -100 0 -112 9 -7 21 -13
26 -13 5 0 68 -26 140 -57 l131 -56 15 24 c52 79 142 187 229 276 105 106 147
139 135 106 -4 -11 10 -4 38 20 217 185 403 260 548 223 112 -29 175 -87 236
-219 49 -107 65 -178 72 -317 7 -165 -7 -229 -102 -473 -174 -442 -154 -411
-485 -715 -185 -170 -252 -207 -374 -207 -92 0 -144 21 -190 76 -15 17 -28 30
-30 28 -1 -2 -10 -49 -20 -104 -160 -932 -195 -1065 -333 -1285 -20 -30 -128
-147 -242 -260 -186 -184 -282 -298 -307 -363 -14 -37 13 -14 40 35 36 63 142
175 303 320 317 285 385 444 508 1198 30 184 58 350 61 369 l5 33 22 -20 c39
-36 108 -62 170 -62 51 0 58 -2 53 -17 -12 -40 -57 -338 -71 -467 -43 -398
-41 -751 6 -1081 62 -431 213 -830 414 -1095 76 -101 98 -162 98 -275 0 -117
-28 -218 -97 -360 -293 -596 -940 -1028 -1706 -1139 -521 -76 -1060 29 -1442
280 -111 73 -265 218 -337 317 -98 135 -157 314 -147 446 31 397 10 740 -62
1029 -11 39 -15 72 -11 72 4 0 43 -23 86 -52 107 -72 255 -217 316 -311 54
-83 72 -96 36 -25 -91 179 -245 322 -482 448 -64 34 -117 62 -117 63 0 1 60 0
134 -1 364 -10 700 118 920 349 47 50 86 95 86 101 0 7 -39 -27 -87 -73 -133
-129 -268 -212 -453 -276 -141 -50 -246 -66 -425 -67 -139 -1 -171 2 -240 22
-84 25 -203 82 -229 111 -15 16 -11 16 41 -2 75 -26 190 -28 259 -4 65 22 131
79 155 131 61 134 -32 279 -156 245 -64 -18 -94 -87 -59 -137 25 -36 94 -25
94 15 0 7 -4 13 -10 13 -5 0 -10 -7 -10 -15 0 -8 -8 -15 -18 -15 -47 0 -58 66
-16 99 42 33 80 27 125 -18 37 -36 39 -42 39 -99 0 -53 -4 -66 -33 -104 -44
-59 -126 -99 -216 -106 -170 -12 -327 90 -387 251 -17 46 -19 79 -19 287 -1
262 -1 266 -82 490 -59 165 -267 579 -370 737 -13 20 -12 23 9 33 13 7 37 26
55 43 30 28 33 29 39 11 4 -10 43 -84 88 -164 44 -80 96 -181 117 -225 78
-168 144 -400 174 -610 l14 -100 -3 120 c-8 255 -92 505 -291 860 -47 83 -85
156 -85 162 0 14 103 165 125 183 14 12 15 4 13 -76 -2 -74 1 -94 17 -118 20
-31 33 -20 16 13 -6 11 -11 30 -10 43 0 20 2 19 11 -7 6 -16 25 -50 42 -75 18
-25 45 -78 60 -117 15 -40 32 -75 37 -79 16 -9 56 -95 78 -168 12 -38 26 -120
31 -183 11 -118 22 -153 62 -190 66 -62 221 -89 443 -79 444 22 710 137 960
416 73 81 138 178 235 345 l63 110 68 -3 c38 -2 83 1 100 7 l32 11 -6 -88
c-13 -186 -77 -438 -159 -629 -67 -158 -145 -269 -292 -420 -49 -51 -86 -93
-81 -93 18 0 162 139 227 220 118 145 228 396 293 670 29 125 45 225 45 298 0
46 4 56 29 78 36 30 71 100 71 142 0 69 -42 122 -95 121 -28 -1 -28 -1 -6 -8
13 -3 33 -19 44 -33 18 -24 19 -32 8 -68 -10 -34 -55 -82 -64 -69 -2 2 -13 40
-26 84 -47 167 -123 284 -293 455 -221 221 -473 398 -622 439 -53 14 -34 -1
38 -29 148 -59 408 -264 624 -493 95 -101 132 -153 177 -250 36 -76 77 -211
67 -221 -11 -12 -128 -5 -176 9 -62 19 -146 65 -314 172 -164 104 -273 156
-383 183 -111 26 -259 27 -361 1 -78 -20 -267 -100 -268 -114 0 -4 17 0 38 9
20 9 80 32 132 50 285 100 495 59 847 -168 225 -144 336 -187 449 -173 61 7
109 36 141 84 29 43 31 15 4 -44 -23 -49 -43 -68 -105 -96 -109 -48 -284 3
-508 148 -203 131 -359 191 -567 218 -169 23 -272 6 -493 -81 -82 -32 -152
-54 -175 -54 -59 0 -113 11 -113 24 0 7 -36 11 -113 11 -102 0 -117 -3 -167
-27 -83 -41 -130 -87 -209 -202 -108 -158 -163 -196 -263 -183 -40 5 -88 41
-110 81 -10 18 -9 18 16 -2 37 -28 79 -36 123 -21 64 20 92 48 167 163 40 61
93 130 118 152 83 77 218 104 334 69 67 -20 88 -18 38 5 -101 45 -210 48 -301
9 -52 -22 -134 -97 -178 -162 l-32 -48 -11 28 c-23 57 -30 119 -22 188 10 88
38 164 95 251 47 74 52 96 9 45 -136 -162 -172 -331 -109 -510 13 -37 13 -46
1 -69 -21 -41 -74 -88 -86 -76 -14 14 -145 301 -190 417 -61 155 -73 218 -68
354 4 95 11 135 33 202 33 96 174 389 211 439 27 34 70 61 119 72 l30 7 -27
11 c-16 7 -30 22 -34 37 -3 14 -8 25 -11 25 -10 0 -49 -24 -70 -43 -25 -23
-29 -18 -35 46 l-4 37 40 0 c40 0 41 -13 1 -23 -11 -3 0 -5 25 -4 38 2 48 7
68 34 33 48 87 71 218 93 139 24 199 25 323 5 87 -14 96 -14 110 1 15 14 14
17 -8 32 -39 27 -186 91 -233 102 -63 14 -188 12 -242 -4 -70 -21 -120 -60
-181 -141 -50 -66 -58 -73 -95 -77 -45 -4 -42 -8 -61 90 -18 94 -6 228 30 347
17 55 31 120 31 144 0 66 38 123 102 155 28 14 60 26 70 26 9 0 41 9 70 20 41
15 76 42 151 115 53 52 104 95 112 95 8 0 15 4 15 8 0 10 64 32 98 35 12 1 22
5 22 10 0 4 5 5 10 2 6 -3 10 -1 10 5 0 6 4 9 9 5 18 -10 22 14 8 48 -14 33
-60 77 -80 77 -6 0 -2 -10 9 -22 18 -22 18 -22 -8 1 -23 20 -33 22 -77 16 -55
-7 -164 -58 -226 -106 -38 -29 -177 -101 -183 -94 -2 1 13 40 31 86 19 46 71
192 115 324 91 273 143 399 224 535 228 388 526 621 907 712 165 39 348 43
549 12z m3247 -219 c-54 -23 -78 -28 -70 -15 10 15 44 29 75 29 24 -1 24 -1
-5 -14z m115 -14 c24 -7 24 -7 5 -19 -19 -11 -19 -11 5 -12 14 0 40 -9 58 -20
34 -21 45 -38 13 -20 -37 19 -44 10 -10 -13 42 -27 79 -98 79 -150 0 -39 -25
-107 -40 -107 -4 0 2 18 13 41 18 36 19 46 8 94 -7 29 -21 61 -32 71 -19 17
-19 16 2 -31 15 -33 20 -60 16 -87 -5 -40 -34 -94 -44 -84 -3 3 -1 11 4 18 15
20 23 48 14 48 -5 0 -14 -14 -20 -31 -8 -24 -15 -30 -33 -27 -15 2 -21 9 -19
18 15 51 12 102 -9 145 -32 65 -125 124 -199 126 -17 0 -1 9 44 24 72 25 102
28 145 16z m-100 -83 c76 -39 125 -137 106 -212 -9 -35 -24 -33 -20 2 2 15 1
20 -2 12 -9 -20 -35 -50 -44 -50 -4 0 -6 20 -6 44 1 25 -4 50 -10 56 -8 8 -10
-2 -6 -38 2 -30 0 -52 -7 -56 -7 -5 -11 4 -12 26 l-1 33 -9 -32 c-13 -44 -29
-51 -23 -11 10 67 -63 160 -138 175 l-26 5 31 34 c27 29 39 34 77 34 28 0 63
-9 90 -22z m-128 -88 c66 -39 96 -134 58 -183 l-22 -27 -98 92 -99 93 27 22
c34 28 90 30 134 3z m-4493 -109 c-162 -227 -248 -398 -339 -673 -17 -54 -33
-98 -35 -98 -2 0 -26 58 -54 128 -50 127 -81 234 -81 282 0 23 4 25 53 26 95
1 162 45 322 210 77 79 142 144 144 144 2 0 -3 -9 -10 -19z m4802 -107 c217
-64 390 -270 443 -526 20 -98 21 -269 1 -384 -9 -49 -31 -154 -51 -234 -49
-200 -60 -294 -45 -389 13 -85 49 -173 89 -214 l27 -28 -38 16 c-72 30 -135
76 -175 128 -42 53 -92 150 -92 177 0 8 13 -13 30 -48 16 -34 45 -84 65 -110
34 -43 110 -112 124 -112 3 1 -11 14 -31 31 -64 52 -139 167 -171 263 -13 38
-17 86 -17 202 0 421 -124 817 -353 1127 -55 75 -54 80 9 102 52 19 119 18
185 -1z m-4780 -895 l24 -20 -30 17 c-39 24 -40 24 -28 24 6 0 21 -9 34 -21z
m-29 -18 c24 -10 50 -26 58 -36 9 -11 -7 -6 -45 15 -85 48 -89 54 -13 21z
m-28 -17 c30 -14 58 -30 62 -35 3 -6 -14 0 -37 12 -24 12 -62 28 -84 35 -25 8
-32 13 -19 13 12 1 47 -11 78 -25z m-94 6 c11 -8 7 -9 -15 -4 -37 8 -45 14
-19 14 10 0 26 -5 34 -10z m64 -24 c19 -8 37 -19 41 -26 6 -9 -69 23 -84 36
-9 8 11 3 43 -10z m-21 -22 c26 -9 47 -20 47 -24 0 -5 -17 -2 -37 7 -21 8 -58
19 -83 23 -43 7 -44 8 -9 9 19 0 56 -6 82 -15z m-73 -14 c15 -5 -4 -6 -45 -3
-38 3 -72 7 -74 9 -8 7 94 2 119 -6z m70 -20 c18 -12 2 -12 -25 0 -13 6 -15 9
-5 9 8 0 22 -4 30 -9z m-172 -7 c-10 -2 -26 -2 -35 0 -10 3 -2 5 17 5 19 0 27
-2 18 -5z m110 -10 c-10 -2 -28 -2 -40 0 -13 2 -5 4 17 4 22 1 32 -1 23 -4z
m-141 -19 c-3 -3 -12 -4 -19 -1 -8 3 -5 6 6 6 11 1 17 -2 13 -5z m140 0 c-3
-3 -12 -4 -19 -1 -8 3 -5 6 6 6 11 1 17 -2 13 -5z m40 0 c-3 -3 -12 -4 -19 -1
-8 3 -5 6 6 6 11 1 17 -2 13 -5z m-250 -10 c-3 -3 -12 -4 -19 -1 -8 3 -5 6 6
6 11 1 17 -2 13 -5z m198 -24 c-3 -5 -32 -9 -63 -8 l-57 1 60 7 c33 4 61 7 63
8 2 1 0 -2 -3 -8z m-298 -16 c-3 -3 -12 -4 -19 -1 -8 3 -5 6 6 6 11 1 17 -2
13 -5z m271 -11 c-10 -2 -26 -2 -35 0 -10 3 -2 5 17 5 19 0 27 -2 18 -5z
m-275 -20 c-13 -2 -33 -2 -45 0 -13 2 -3 4 22 4 25 0 35 -2 23 -4z m192 -27
c41 1 46 -1 28 -9 -16 -7 -51 -5 -120 6 -79 13 -85 15 -28 10 39 -4 93 -7 120
-7z m-265 -16 c-20 -13 -33 -13 -25 0 3 6 14 10 23 10 15 0 15 -2 2 -10z m10
-32 c-19 -5 -42 -16 -51 -24 -19 -17 -33 -19 -23 -3 9 15 64 38 89 38 11 -1 4
-5 -15 -11z m247 6 c-3 -3 -12 -4 -19 -1 -8 3 -5 6 6 6 11 1 17 -2 13 -5z
m-44 -11 c-7 -2 -19 -2 -25 0 -7 3 -2 5 12 5 14 0 19 -2 13 -5z m-140 -20 c-7
-2 -21 -2 -30 0 -10 3 -4 5 12 5 17 0 24 -2 18 -5z m-83 -13 c-8 -5 -19 -10
-25 -10 -5 0 -3 5 5 10 8 5 20 10 25 10 6 0 3 -5 -5 -10z m153 3 c-7 -2 -21
-2 -30 0 -10 3 -4 5 12 5 17 0 24 -2 18 -5z m-54 -17 c-2 -2 -29 -6 -59 -9
-36 -4 -46 -3 -30 3 25 8 97 13 89 6z m-140 -39 c-13 -13 -26 -21 -29 -19 -5
4 38 42 48 42 3 0 -6 -10 -19 -23z m41 10 c0 -2 -10 -12 -22 -23 l-23 -19 19
23 c18 21 26 27 26 19z m35 -9 c-11 -6 -30 -23 -43 -37 -13 -14 -20 -19 -16
-11 13 28 47 60 63 60 12 -1 11 -3 -4 -12z m-104 -101 c-10 -9 -11 -8 -5 6 3
10 9 15 12 12 3 -3 0 -11 -7 -18z m16 -59 c-3 -7 -5 -2 -5 12 0 14 2 19 5 13
2 -7 2 -19 0 -25z m515 -416 c12 -12 -5 -42 -24 -42 -6 0 -5 7 2 15 14 16 0
21 -15 6 -6 -6 -10 -2 -10 13 0 24 26 29 47 8z m-211 -36 c-23 -25 -51 -25
-51 0 0 7 12 20 28 28 38 20 52 3 23 -28z m331 17 c70 -27 94 -49 36 -32 -18
5 -51 9 -74 9 -36 0 -42 3 -46 25 -6 31 1 31 84 -2z m-433 -74 c-19 -12 -24
-2 -8 17 9 11 14 13 17 4 3 -7 -2 -16 -9 -21z m-95 -174 c16 -24 15 -24 -19
-41 -19 -9 -46 -30 -60 -46 l-25 -30 0 31 c0 23 11 42 40 71 22 22 42 40 44
40 2 0 11 -11 20 -25z m1426 -1130 l65 -13 -95 5 c-52 3 -115 9 -140 13 -40 7
-37 8 30 8 41 1 104 -5 140 -13z m85 -47 c159 -31 331 -92 432 -154 48 -30 84
-54 80 -54 -23 0 -172 25 -332 56 -160 31 -198 35 -340 36 -185 0 -249 -10
-395 -59 -95 -32 -114 -35 -195 -32 -209 7 -283 -7 -331 -64 -24 -28 -26 -37
-21 -89 5 -52 3 -57 -12 -49 -38 21 -74 81 -85 143 -8 42 15 98 56 135 61 56
184 75 310 49 87 -18 138 -12 211 25 77 40 170 70 241 78 97 12 261 3 381 -21z
m28 25 c-7 -2 -19 -2 -25 0 -7 3 -2 5 12 5 14 0 19 -2 13 -5z m44 -9 c-3 -3
-12 -4 -19 -1 -8 3 -5 6 6 6 11 1 17 -2 13 -5z m-1092 -62 c-6 -5 -31 -16 -57
-26 -57 -21 -94 -49 -119 -90 -12 -20 -19 -25 -19 -14 0 52 71 111 152 127 23
5 45 9 48 10 2 1 0 -3 -5 -7z m4246 -134 c-55 -118 -149 -349 -183 -448 -41
-120 -58 -209 -58 -302 0 -45 -5 -111 -12 -147 l-11 -66 -13 63 c-7 35 -18 70
-25 78 -15 18 -7 128 32 439 43 340 36 316 84 330 61 18 116 49 165 94 25 22
48 40 52 41 4 0 -10 -37 -31 -82z m-3340 13 c10 -12 19 -27 21 -33 3 -7 17 2
35 22 l30 33 77 -13 c81 -14 106 -28 106 -61 0 -25 5 -24 38 6 15 14 32 24 37
21 6 -2 43 -9 83 -16 47 -9 72 -18 72 -27 0 -7 -4 -13 -10 -13 -5 0 -10 -12
-10 -27 0 -28 1 -27 22 10 18 30 28 37 52 37 58 0 75 -10 82 -46 6 -33 24 -48
24 -21 0 7 6 22 14 32 14 19 16 19 75 -10 l61 -29 0 -61 c0 -49 -4 -66 -20
-80 -15 -14 -23 -15 -33 -6 -11 9 -17 8 -27 -4 -14 -17 -61 -20 -77 -4 -8 8
-19 6 -41 -5 -44 -23 -86 -20 -119 8 -27 24 -28 24 -48 6 -38 -35 -116 -30
-156 10 -24 23 -31 26 -36 14 -3 -8 -18 -21 -34 -29 -51 -27 -121 -15 -167 28
l-22 21 -15 -22 c-28 -40 -168 -58 -212 -27 -18 13 -22 12 -38 -5 -9 -10 -39
-24 -66 -29 -65 -14 -196 -14 -204 0 -5 6 -11 4 -19 -6 -24 -33 -166 -46 -204
-19 -20 14 -22 14 -22 -4 0 -14 -13 -25 -40 -36 -22 -9 -47 -16 -55 -16 -25 0
-45 55 -57 159 -10 88 -10 103 4 118 8 10 14 23 11 29 -2 6 5 14 17 17 22 6
26 -3 9 -20 -8 -8 -8 -17 -1 -29 9 -16 11 -13 17 19 7 35 9 37 45 37 35 0 37
-2 34 -27 l-4 -28 14 30 14 29 83 -3 c56 -2 89 -8 100 -18 15 -13 19 -12 31 6
16 22 156 74 231 85 45 7 47 6 67 -26 11 -18 20 -26 20 -17 0 21 39 56 70 62
54 11 123 0 141 -22z m-201 4 c-7 -8 -16 -12 -21 -9 -13 8 -1 24 18 24 13 0
13 -3 3 -15z m250 6 c0 -18 -18 -21 -30 -6 -10 13 -9 15 9 15 11 0 21 -4 21
-9z m250 -36 c0 -8 -4 -15 -10 -15 -5 0 -10 7 -10 15 0 8 5 15 10 15 6 0 10
-7 10 -15z m-772 -361 c3 -19 -3 -23 -45 -27 -82 -10 -293 -7 -293 3 0 6 8 10
18 10 10 0 27 6 38 14 13 9 35 12 67 9 42 -5 46 -8 35 -22 -8 -10 -4 -9 10 3
24 21 85 35 137 32 22 -1 31 -6 33 -22z m-414 -55 c32 -25 69 -95 110 -208 20
-54 40 -90 56 -102 36 -27 140 -39 335 -39 543 0 810 75 1055 296 l64 59 -34
-48 c-188 -264 -440 -433 -732 -492 -180 -36 -488 -46 -611 -20 -129 27 -168
73 -182 210 -11 116 -35 216 -68 285 -18 36 -33 68 -35 73 -7 14 16 7 42 -14z
m1369 -94 c37 -9 67 -20 67 -24 0 -9 -32 -28 -122 -73 -90 -45 -130 -52 -136
-24 -6 27 10 37 69 46 l54 8 -54 1 c-38 1 -60 -4 -72 -15 -15 -14 -23 -15 -47
-5 -31 13 -68 8 -115 -16 -26 -13 -31 -13 -48 3 -27 25 -133 31 -180 11 -24
-10 -42 -11 -59 -5 -33 13 -129 12 -164 -1 -33 -13 -76 -14 -76 -2 0 26 161
71 255 70 l60 0 -38 -20 c-22 -11 -37 -22 -35 -24 2 -2 44 10 93 26 166 56
239 69 365 65 67 -2 143 -11 183 -21z m-637 -120 c18 -12 25 -11 50 6 21 13
47 19 90 19 77 0 108 -21 109 -73 2 -40 2 -40 -150 -53 -72 -6 -79 -6 -67 9 8
9 9 17 3 21 -6 4 -15 -2 -21 -13 -10 -19 -21 -20 -188 -21 -97 0 -184 -1 -192
-2 -8 0 -36 0 -62 0 l-47 2 6 33 c3 17 13 40 21 50 16 19 82 24 82 6 0 -5 10
-3 22 5 26 19 109 21 126 4 8 -8 15 -8 26 1 39 32 147 36 192 6z m418 4 c14
-11 26 -24 26 -29 0 -10 -83 -37 -142 -47 -37 -5 -38 -5 -38 24 0 34 15 50 57
63 46 14 69 11 97 -11z m2781 -354 c-10 -93 -25 -86 -25 11 0 50 3 94 7 98 13
12 23 -56 18 -109z"/>
<path d="M4940 9033 c-59 -10 -144 -38 -275 -91 l-140 -57 -185 0 -185 0 -75
-36 c-41 -19 -81 -43 -89 -52 -8 -10 24 1 75 26 l89 42 175 0 c96 1 189 5 205
9 17 5 91 33 165 63 74 30 173 63 218 73 46 10 86 21 90 24 6 6 -27 6 -68 -1z"/>
<path d="M4905 8875 c-27 -13 -58 -22 -70 -19 -30 7 -146 -22 -249 -64 l-91
-36 -170 -1 -170 -1 -79 -37 c-43 -21 -77 -40 -74 -42 7 -7 80 16 123 39 36
19 56 21 210 21 l170 0 90 39 c98 42 207 70 238 60 12 -4 40 4 72 20 28 15 81
31 116 35 l64 8 -66 2 c-52 1 -76 -4 -114 -24z"/>
<path d="M4823 8800 c1 -5 -7 -16 -18 -24 -19 -14 -18 -15 13 -4 35 13 40 23
17 32 -8 3 -14 1 -12 -4z"/>
<path d="M4823 8615 c-15 -11 -22 -12 -25 -3 -10 29 -208 -118 -208 -155 0 -6
21 9 48 34 69 66 96 82 34 20 -69 -68 -59 -80 11 -14 48 46 104 83 123 83 5 0
-12 -13 -37 -29 -56 -36 -124 -99 -116 -108 4 -3 24 10 46 30 41 37 115 87
128 87 4 0 -10 -12 -32 -26 -49 -32 -105 -85 -105 -97 0 -5 19 6 43 25 23 19
53 40 67 47 21 10 22 9 6 -1 -45 -30 -91 -77 -75 -78 9 0 22 7 30 16 13 15 69
48 69 40 0 -2 -17 -14 -37 -27 -38 -22 -38 -22 -13 -30 14 -4 48 -7 76 -8 98
-2 163 -21 262 -76 135 -76 179 -85 400 -85 165 0 185 2 210 20 15 10 41 22
57 25 22 5 17 0 -20 -18 -51 -25 -50 -29 10 -42 51 -11 229 -68 242 -78 26
-19 240 -125 278 -137 38 -12 88 -40 72 -40 -5 0 -22 7 -38 16 -17 8 -33 13
-36 10 -7 -7 52 -35 131 -62 81 -28 122 -31 54 -5 -66 26 -99 51 -223 171 -60
58 -130 122 -155 142 -79 64 -219 146 -303 179 -73 28 -98 32 -238 39 -168 9
-257 27 -329 64 -151 80 -300 108 -357 69 -46 -32 -60 -37 -28 -9 33 28 15 37
-22 11z m68 -30 c-24 -14 -46 -23 -48 -21 -5 5 67 45 82 45 6 1 -10 -11 -34
-24z m109 13 c-14 -5 -49 -21 -79 -34 -29 -14 -56 -23 -58 -20 -6 5 70 45 107
57 37 11 59 9 30 -3z m85 -8 c-3 -5 -14 -10 -24 -10 -10 0 -44 -9 -77 -20 -32
-11 -54 -16 -49 -11 13 12 114 49 138 50 10 1 15 -3 12 -9z m5 -25 c-46 -18
-64 -17 -25 0 17 8 37 14 45 14 8 0 -1 -7 -20 -14z m80 -12 c0 -9 -110 -46
-117 -40 -2 2 20 13 49 25 62 23 68 25 68 15z m-140 -8 c0 -2 -10 -9 -22 -15
-22 -11 -22 -10 -4 4 21 17 26 19 26 11z m-115 -15 c-3 -5 -11 -10 -16 -10 -6
0 -7 5 -4 10 3 6 11 10 16 10 6 0 7 -4 4 -10z m35 -14 c0 -2 -7 -7 -16 -10 -8
-3 -12 -2 -9 4 6 10 25 14 25 6z m229 0 c-2 -2 -20 -6 -39 -10 -25 -4 -31 -3
-20 4 14 9 69 15 59 6z m97 -11 c18 -14 16 -15 -21 -14 -22 1 -53 -3 -68 -10
-47 -18 -45 -12 3 13 56 29 62 30 86 11z m-366 -9 c0 -2 -7 -7 -16 -10 -8 -3
-12 -2 -9 4 6 10 25 14 25 6z m110 0 c0 -2 -9 -6 -20 -9 -11 -3 -18 -1 -14 4
5 9 34 13 34 5z m300 -14 c0 -4 -27 -14 -60 -20 -34 -7 -69 -16 -78 -19 -10
-4 -14 -2 -9 3 5 5 36 16 70 26 76 20 77 20 77 10z m-466 -17 c-10 -8 -23 -15
-28 -15 -6 0 -1 7 10 15 10 8 23 15 28 15 6 0 1 -7 -10 -15z m526 6 c0 -5 -13
-14 -30 -20 -37 -13 -39 -6 -2 13 33 18 32 18 32 7z m-480 -16 c-7 -8 -18 -15
-24 -15 -6 0 -2 7 8 15 25 19 32 19 16 0z m216 6 c-11 -17 -116 -45 -127 -34
-7 7 -2 9 15 6 15 -3 26 -1 26 6 0 6 10 11 23 11 12 0 29 5 37 10 19 12 33 13
26 1z m339 0 c-11 -10 -154 -71 -164 -70 -8 1 151 77 164 78 6 1 6 -2 0 -8z
m49 -15 c-50 -22 -82 -27 -39 -7 22 11 47 20 55 20 8 0 1 -6 -16 -13z m96 5
c-8 -5 -26 -11 -40 -15 -21 -5 -20 -3 5 9 32 15 60 20 35 6z m-490 -21 c-8 -5
-24 -10 -35 -11 -11 -1 -2 -5 20 -9 l40 -7 -49 -2 c-41 -1 -47 1 -36 13 10 13
30 20 65 24 6 1 3 -3 -5 -8z m481 -16 c-35 -13 -66 -23 -68 -21 -5 6 98 46
117 46 8 0 -14 -11 -49 -25z m104 6 c-11 -5 -27 -9 -35 -9 -9 0 -8 4 5 9 11 5
27 9 35 9 9 0 8 -4 -5 -9z m-275 -4 c0 -5 -88 -46 -97 -46 -9 1 78 49 90 50 4
0 7 -2 7 -4z m70 -6 c-8 -5 -19 -10 -25 -10 -5 0 -3 5 5 10 8 5 20 10 25 10 6
0 3 -5 -5 -10z m-245 -9 c-6 -5 -21 -11 -35 -15 -21 -5 -20 -3 5 9 35 17 42
18 30 6z m365 -6 c-46 -18 -64 -17 -25 0 17 8 37 14 45 14 8 0 -1 -7 -20 -14z
m223 8 c-7 -2 -21 -2 -30 0 -10 3 -4 5 12 5 17 0 24 -2 18 -5z m-113 -13 c-34
-11 -60 -11 -35 0 11 5 29 8 40 8 16 0 15 -2 -5 -8z m170 -10 c11 -7 1 -9 -35
-9 -44 1 -46 2 -20 9 17 4 32 8 35 9 3 0 12 -4 20 -9z m-243 -6 c-3 -3 -12 -4
-19 -1 -8 3 -5 6 6 6 11 1 17 -2 13 -5z m-420 -10 c-3 -3 -12 -4 -19 -1 -8 3
-5 6 6 6 11 1 17 -2 13 -5z m533 2 c0 -2 -9 -6 -20 -9 -11 -3 -20 -1 -20 4 0
5 9 9 20 9 11 0 20 -2 20 -4z m-220 -26 c-8 -5 -19 -10 -25 -10 -5 0 -3 5 5
10 8 5 20 10 25 10 6 0 3 -5 -5 -10z m263 -5 c-34 -7 -83 -23 -109 -34 -52
-23 -57 -25 -50 -12 5 8 100 45 141 54 11 3 34 5 50 5 17 0 2 -6 -32 -13z
m-248 -24 c-71 -33 -120 -47 -110 -31 3 5 12 10 18 10 7 0 39 11 72 25 81 33
95 30 20 -4z m61 -6 c-27 -14 -52 -23 -54 -20 -5 5 76 43 93 44 6 0 -12 -11
-39 -24z m-156 5 c-8 -5 -19 -10 -25 -10 -5 0 -3 5 5 10 8 5 20 10 25 10 6 0
3 -5 -5 -10z m536 -4 c17 -13 15 -14 -21 -6 -22 5 -51 10 -65 13 -15 2 -6 5
21 6 26 0 54 -5 65 -13z m-669 -2 c-3 -3 -12 -4 -19 -1 -8 3 -5 6 6 6 11 1 17
-2 13 -5z m583 -25 c-25 -4 -61 -8 -80 -8 -28 0 -31 2 -15 9 11 5 47 8 80 8
l60 -1 -45 -8z m-13 -31 c-27 -7 -45 -7 -60 0 -18 9 -11 11 38 10 59 0 60 0
22 -10z m191 -8 c39 -24 42 -33 5 -16 -16 7 -39 18 -53 24 -22 9 -22 11 -5 11
11 1 35 -8 53 -19z m-54 -9 c10 -4 -14 -7 -55 -8 -47 0 -67 2 -54 7 25 11 84
11 109 1z m41 -30 c35 -8 36 -9 10 -9 -16 -1 -48 3 -70 7 -35 8 -36 9 -10 9
17 1 48 -3 70 -7z m5 -31 c18 -12 2 -12 -25 0 -13 6 -15 9 -5 9 8 0 22 -4 30
-9z m141 -40 l24 -21 -35 17 c-43 21 -47 24 -28 24 9 0 26 -9 39 -20z m-23
-20 c23 -10 42 -21 42 -24 0 -6 -86 20 -108 33 -32 19 19 12 66 -9z"/>
<path d="M5238 8503 c7 -3 16 -2 19 1 4 3 -2 6 -13 5 -11 0 -14 -3 -6 -6z"/>
<path d="M4223 8508 c-13 -53 -23 -111 -23 -129 0 -53 41 -213 51 -198 9 15 7
28 -18 128 -15 59 -15 69 1 155 26 129 16 164 -11 44z"/>
<path d="M4442 8588 c-5 -7 -20 -33 -33 -58 -20 -38 -23 -60 -24 -145 0 -69 6
-118 18 -159 23 -74 32 -67 17 12 -7 34 -11 105 -8 159 3 81 8 109 29 151 24
48 25 69 1 40z"/>
<path d="M4260 8026 c0 -4 18 -69 40 -144 52 -177 61 -291 31 -407 -33 -128
-183 -420 -317 -618 -29 -42 -60 -96 -69 -120 -12 -33 -27 -48 -64 -69 -58
-32 -101 -106 -101 -172 0 -59 40 -138 83 -164 36 -23 147 -32 147 -12 0 6
-21 10 -47 10 -62 0 -106 27 -134 81 -38 74 -12 182 57 234 l34 26 0 -44 c0
-24 7 -52 15 -63 13 -17 14 -14 15 37 0 88 22 140 119 288 107 163 239 416
277 533 34 104 38 253 9 363 -29 112 -95 279 -95 241z"/>
<path d="M5155 7982 c-34 -16 -77 -48 -99 -72 -40 -44 -91 -143 -101 -195 -5
-29 -5 -29 11 5 10 19 27 58 40 85 46 99 122 164 223 191 39 11 42 13 16 13
-16 1 -57 -12 -90 -27z"/>
<path d="M3918 7944 c76 -20 105 -37 167 -102 50 -51 106 -146 140 -237 4 -12
9 -15 12 -8 6 16 -37 121 -78 190 -57 95 -178 174 -263 172 -25 0 -21 -3 22
-15z"/>
<path d="M6260 7812 c-52 -43 -169 -111 -222 -130 -27 -9 -48 -20 -48 -24 0
-11 2 -11 67 13 61 23 163 86 223 138 44 39 26 41 -20 3z"/>
<path d="M5154 7799 c-59 -22 -130 -81 -158 -130 -16 -28 -8 -24 47 29 70 66
130 99 206 112 l46 8 -45 0 c-25 1 -68 -8 -96 -19z"/>
<path d="M4683 7785 c-12 -9 -30 -39 -39 -68 -14 -44 -14 -62 -5 -107 6 -31
21 -69 32 -85 12 -18 18 -22 14 -10 -27 81 -34 129 -25 178 6 29 19 64 30 80
24 31 23 33 -7 12z"/>
<path d="M6390 7760 c-19 -11 -84 -40 -145 -66 -118 -50 -121 -51 -113 -59 14
-14 243 88 283 126 24 24 20 23 -25 -1z"/>
<path d="M5212 7755 c-29 -8 -65 -21 -81 -30 -36 -18 -206 -175 -206 -189 0
-23 62 -16 128 14 82 37 165 55 318 69 113 11 264 6 284 -9 6 -4 37 -10 70
-14 59 -6 205 -54 205 -68 0 -4 -10 -9 -22 -11 -13 -2 6 -5 42 -6 57 -1 316
-41 375 -58 13 -3 16 -2 10 4 -15 15 -116 40 -235 58 -57 9 -106 17 -107 19
-7 6 272 44 449 61 37 4 80 11 95 16 40 13 -140 2 -317 -20 -80 -10 -148 -14
-151 -9 -3 4 -36 7 -75 6 -64 -1 -75 2 -164 47 -117 59 -177 80 -300 106 -130
28 -251 33 -318 14z m44 -60 c9 -23 -16 -46 -45 -43 -33 4 -34 29 -1 45 32 16
39 16 46 -2z m175 -5 c6 0 7 5 4 10 -8 13 1 13 26 0 27 -15 24 -40 -6 -40 -22
0 -46 25 -44 47 0 4 3 2 6 -4 2 -7 9 -13 14 -13z m174 -19 l60 -19 -77 -1
c-77 -1 -78 -1 -78 25 0 20 4 24 18 20 9 -3 44 -14 77 -25z m-435 -21 c9 -16
8 -18 -5 -14 -8 4 -15 12 -15 20 0 20 7 17 20 -6z m-60 -25 c0 -20 -11 -30
-61 -55 -73 -37 -97 -35 -41 3 21 15 50 39 62 52 30 32 40 31 40 0z m810 -55
c13 -9 13 -10 0 -10 -8 0 -22 5 -30 10 -13 9 -13 10 0 10 8 0 22 -5 30 -10z"/>
<path d="M3723 7620 c-81 -29 -158 -87 -188 -143 -15 -26 -25 -53 -22 -60 2
-6 13 6 25 28 26 52 100 121 155 144 128 55 273 42 417 -36 52 -28 61 -31 45
-13 -75 84 -303 126 -432 80z"/>
<path d="M8523 7600 c-155 -32 -316 -210 -398 -440 -38 -106 -43 -184 -17
-243 23 -51 58 -76 87 -60 15 9 13 11 -13 16 -42 9 -65 54 -64 128 0 31 8 74
17 95 l15 37 33 -31 c18 -18 41 -32 50 -32 30 0 94 -38 122 -72 24 -30 26 -31
20 -8 -10 37 -68 87 -116 100 -23 6 -55 25 -72 41 -34 34 -32 59 9 122 20 31
30 37 60 37 19 0 53 -9 74 -20 22 -11 40 -17 40 -12 0 15 -77 52 -109 52 l-32
0 17 33 c9 17 49 65 87 105 109 112 204 149 308 119 180 -53 262 -334 174
-602 -6 -19 -6 -19 8 -2 26 31 49 147 48 242 -1 186 -62 315 -174 369 -61 30
-116 38 -174 26z"/>
<path d="M5570 7425 c-176 -34 -364 -30 -537 11 -20 5 -25 3 -18 -4 6 -6 57
-20 115 -32 134 -28 328 -24 495 10 74 15 127 20 164 17 31 -4 50 -2 45 3 -21
21 -140 19 -264 -5z"/>
<path d="M4228 7364 c-37 -43 -189 -201 -390 -405 -200 -203 -287 -330 -337
-493 -32 -104 -25 -135 8 -34 61 187 139 293 432 588 201 202 340 362 326 376
-4 4 -21 -11 -39 -32z"/>
<path d="M5045 7384 c43 -34 185 -87 170 -64 -3 5 -11 10 -16 10 -5 0 -43 16
-83 35 -80 38 -103 44 -71 19z"/>
<path d="M8643 7335 c26 -99 60 -403 53 -470 -27 -250 -120 -417 -308 -554
-32 -23 -58 -44 -58 -47 0 -18 117 64 185 131 67 66 90 96 123 165 73 155 100
345 71 519 -23 137 -49 255 -60 265 -8 8 -10 6 -6 -9z"/>
<path d="M3977 7259 c-93 -31 -235 -59 -298 -59 -21 0 -41 -5 -44 -11 -4 -6
-34 -22 -66 -36 -32 -14 -59 -30 -59 -35 0 -4 12 -2 28 5 55 28 150 56 230 67
86 11 297 74 307 90 8 14 3 12 -98 -21z"/>
<path d="M7995 6909 c-12 -37 5 -87 46 -139 22 -27 44 -62 49 -76 26 -68 -3
-154 -64 -188 -64 -35 -99 -86 -104 -151 -4 -45 -1 -60 14 -76 45 -50 100 -42
164 26 50 53 79 65 157 65 83 0 91 5 166 103 62 81 87 132 86 174 0 25 -2 23
-13 -12 -15 -47 -34 -79 -94 -155 -58 -73 -87 -91 -134 -84 -66 11 -105 -3
-169 -62 -32 -30 -63 -54 -68 -54 -5 0 -16 -3 -24 -6 -21 -8 -57 31 -57 61 0
55 31 105 90 145 67 46 85 80 85 166 0 63 0 62 -80 173 -16 22 -25 47 -25 72
0 42 -14 52 -25 18z"/>
<path d="M4791 6840 c-45 -11 -111 -41 -111 -51 0 -4 19 1 43 11 56 26 160 27
219 1 54 -23 105 -79 114 -126 28 -149 -58 -247 -228 -261 -100 -9 -92 -28 9
-22 95 6 174 45 218 106 27 40 30 51 30 120 0 69 -3 82 -30 122 -52 77 -172
123 -264 100z"/>
<path d="M4553 6525 c-71 -20 -122 -47 -157 -84 -24 -25 -27 -33 -16 -46 7 -8
22 -15 34 -15 15 0 17 3 8 9 -47 29 66 102 169 109 33 2 59 1 59 -3 0 -4 -10
-15 -22 -26 -23 -18 -23 -18 42 -19 39 0 77 6 94 15 26 14 31 14 48 -1 10 -10
20 -15 23 -13 10 10 -29 52 -61 65 -51 22 -161 26 -221 9z"/>
<path d="M3980 6462 c0 -6 5 -14 10 -17 20 -12 10 -26 -11 -15 -16 9 -26 8
-45 -5 -20 -13 -23 -19 -14 -36 15 -27 38 -34 71 -22 25 10 39 6 114 -33 75
-39 93 -44 148 -43 94 1 119 17 27 18 -96 1 -159 30 -241 107 -32 32 -59 52
-59 46z m17 -78 c-3 -3 -12 -4 -19 -1 -8 3 -5 6 6 6 11 1 17 -2 13 -5z"/>
<path d="M6323 6118 c16 -73 20 -131 21 -268 0 -154 -2 -185 -23 -257 -25 -91
-107 -264 -228 -483 -44 -80 -115 -210 -158 -290 -43 -80 -100 -185 -128 -233
-27 -49 -47 -91 -44 -93 7 -7 130 201 302 511 270 483 304 568 312 780 5 133
-8 254 -43 373 -25 87 -33 58 -11 -40z"/>
<path d="M6765 3064 c-68 -56 -216 -149 -316 -199 -133 -67 -273 -116 -431
-152 -109 -24 -144 -27 -303 -27 -158 -1 -190 2 -258 22 -43 12 -95 31 -116
41 -65 34 -141 101 -177 157 -35 55 -49 68 -37 37 28 -75 137 -182 226 -222
264 -119 705 -72 1082 116 109 54 269 155 334 213 42 36 38 48 -4 14z"/>
<path d="M7255 2449 c-212 -180 -464 -316 -724 -389 -196 -55 -269 -64 -484
-65 -203 0 -214 -9 -27 -21 314 -20 724 100 1033 302 128 84 310 235 281 234
-5 -1 -40 -28 -79 -61z"/>
</g>
</svg>
