<?xml version="1.0" standalone="no"?>
<!DOCTYPE svg PUBLIC "-//W3C//DTD SVG 20010904//EN"
 "http://www.w3.org/TR/2001/REC-SVG-20010904/DTD/svg10.dtd">
<svg version="1.0" xmlns="http://www.w3.org/2000/svg"
 width="1254.000000pt" height="1254.000000pt" viewBox="0 0 1254.000000 1254.000000"
 preserveAspectRatio="xMidYMid meet">

<g transform="translate(0.000000,1254.000000) scale(0.100000,-0.100000)"
fill="#000000" stroke="none">
<path d="M6455 11354 c-16 -2 -73 -9 -125 -15 -1049 -116 -1840 -560 -2165
-1214 -113 -227 -151 -380 -143 -566 l6 -113 -80 -80 c-262 -263 -469 -583
-578 -893 -28 -78 -76 -262 -138 -523 -11 -47 -40 -133 -65 -190 -77 -179 -91
-236 -84 -359 5 -98 31 -215 67 -306 21 -54 28 -114 18 -160 -11 -51 -32 -62
-94 -50 -22 4 -34 3 -30 -3 11 -19 75 -42 114 -42 39 0 40 -1 51 -47 11 -40
10 -52 -5 -85 -13 -30 -15 -43 -6 -62 15 -34 8 -53 -101 -273 -113 -228 -132
-294 -132 -448 0 -163 29 -245 160 -465 97 -161 96 -157 55 -191 -19 -16 -48
-32 -66 -35 -57 -10 -113 35 -114 92 0 37 24 64 42 46 19 -19 30 -14 26 11 -5
35 -50 35 -78 0 -64 -81 42 -212 162 -199 26 3 61 12 77 21 l31 15 24 -47 c73
-145 252 -614 325 -851 70 -226 80 -310 60 -489 -24 -214 47 -390 209 -519
108 -85 277 -149 459 -174 66 -9 142 -11 260 -5 294 13 273 15 336 -28 151
-104 256 -373 258 -660 1 -86 -3 -115 -27 -187 -26 -77 -35 -91 -94 -150 -147
-144 -384 -277 -1025 -575 -213 -99 -596 -288 -733 -362 -155 -84 -76 -54 159
61 129 63 385 183 569 266 538 244 808 385 954 499 32 25 69 54 82 64 l24 19
-11 -29 c-6 -15 -12 -73 -12 -128 0 -112 19 -184 78 -290 39 -71 136 -179 203
-228 140 -103 337 -172 562 -198 136 -15 379 -6 535 21 782 134 1627 676 2065
1325 64 94 149 266 189 377 29 85 54 225 46 264 -2 10 -6 41 -9 67 l-6 48 88
-76 c227 -200 492 -339 1327 -695 88 -38 214 -94 280 -125 156 -74 205 -95
205 -89 0 11 -512 252 -915 429 -175 77 -456 220 -585 297 -267 160 -463 349
-640 618 -80 122 -124 209 -171 342 -166 465 -164 969 6 1500 90 280 207 505
455 878 285 428 366 572 485 860 98 239 163 495 189 750 l12 115 26 -50 c34
-66 128 -155 200 -188 57 -27 136 -47 186 -47 22 0 20 4 -26 48 -121 115 -152
303 -89 537 13 50 41 153 62 230 36 131 38 149 39 280 0 153 -13 218 -64 331
-74 164 -235 327 -380 384 -30 12 -56 23 -58 25 -2 2 7 23 20 47 17 33 22 59
22 113 -1 87 -28 150 -95 217 -55 55 -135 84 -201 74 -36 -6 -40 -5 -33 11 70
173 88 255 89 408 1 173 -28 288 -107 425 l-32 55 -7 -65 c-8 -70 -26 -102
-78 -138 -53 -35 -105 -45 -210 -38 -165 10 -276 49 -650 230 -460 223 -687
297 -1040 341 -113 14 -502 19 -595 9z m671 -53 c317 -48 566 -132 926 -312
355 -178 543 -242 713 -243 158 -1 246 43 280 139 l13 38 21 -48 c77 -173 86
-404 25 -591 -72 -223 -203 -392 -367 -475 l-38 -20 -52 30 c-29 16 -88 42
-132 56 -44 15 -81 28 -83 30 -2 2 21 11 50 20 269 88 482 321 564 619 17 65
1 46 -21 -24 -29 -92 -113 -242 -178 -320 -149 -177 -367 -289 -525 -269 -131
17 -309 10 -435 -16 -142 -30 -124 -24 -434 -131 -347 -119 -503 -144 -693
-110 -100 18 -167 45 -415 166 -299 146 -445 198 -659 236 -337 59 -754 -7
-1076 -169 -130 -66 -222 -125 -323 -206 -85 -69 -211 -207 -202 -221 3 -6 -1
-7 -9 -4 -22 8 -30 117 -17 218 47 354 273 723 607 992 446 358 1038 566 1824
638 117 11 509 -3 636 -23z m2114 -1242 c19 -10 29 -18 21 -19 -8 0 4 -13 25
-29 21 -15 47 -42 57 -60 20 -33 13 -42 -10 -13 -17 20 -15 13 16 -52 36 -77
27 -189 -17 -204 -11 -3 -10 3 2 26 17 32 22 97 8 106 -4 2 -8 -13 -8 -35 -1
-21 -9 -50 -18 -64 -14 -21 -24 -25 -62 -25 -42 0 -45 2 -39 23 5 19 4 20 -5
5 -6 -10 -23 -18 -38 -18 -16 0 -34 -6 -41 -12 -10 -11 -11 -6 -6 25 9 49 2
47 -25 -8 -25 -52 -40 -58 -40 -15 0 34 -22 94 -39 104 -6 4 -4 -9 4 -28 25
-60 19 -106 -20 -150 l-34 -38 -88 77 c-48 43 -98 82 -110 88 -23 10 -31 27
-15 27 5 0 37 18 71 40 43 28 73 40 98 40 30 0 34 2 23 15 -10 12 -10 15 1 16
9 0 7 3 -4 7 -30 12 42 74 95 83 39 6 40 7 10 8 l-33 1 52 54 c49 51 54 53 93
48 22 -2 57 -13 76 -23z m-3547 -10 c184 -30 354 -92 645 -232 332 -161 396
-181 572 -181 173 0 265 23 659 163 79 29 148 50 153 49 17 -6 -352 -186 -456
-223 -243 -87 -468 -98 -660 -33 -33 11 -162 69 -286 128 -124 59 -256 120
-295 135 -331 131 -696 159 -1030 80 -312 -74 -620 -225 -843 -413 -85 -72
-72 -41 24 56 154 154 346 280 564 369 175 71 319 103 575 127 75 7 260 -5
378 -25z m-108 -114 c224 -28 419 -93 715 -238 113 -56 250 -117 305 -137 94
-33 102 -38 132 -82 59 -89 79 -261 48 -411 -8 -40 -31 -129 -50 -197 -80
-279 -59 -363 140 -580 174 -190 270 -375 321 -615 26 -121 28 -146 28 -370
-1 -208 -4 -263 -27 -414 -14 -96 -25 -176 -23 -178 5 -5 36 142 51 242 67
464 22 818 -140 1105 -56 99 -82 133 -226 293 -111 123 -132 166 -137 277 -3
73 2 104 33 225 54 202 64 260 65 355 0 121 -26 206 -88 289 l-25 33 44 -7
c71 -13 228 -8 314 10 137 28 249 71 479 184 324 160 426 188 645 178 369 -16
657 -192 902 -550 181 -264 300 -600 339 -962 41 -380 -56 -857 -269 -1308
-70 -151 -133 -258 -295 -507 -239 -368 -308 -480 -382 -625 -178 -344 -278
-695 -305 -1074 -10 -143 -4 -255 22 -456 11 -87 65 -319 81 -348 5 -10 7 -21
4 -24 -9 -10 -145 300 -213 486 -40 111 -106 339 -133 461 -42 189 -90 602
-90 774 l0 68 64 82 c255 327 473 805 537 1174 11 69 19 161 19 231 0 234 -68
387 -204 459 -46 25 -61 27 -156 26 -123 0 -189 -21 -323 -100 -111 -66 -258
-213 -314 -314 -50 -91 -67 -148 -21 -69 121 203 323 372 521 434 217 69 367
-4 439 -213 20 -59 23 -86 23 -222 0 -189 -23 -314 -96 -535 -120 -358 -305
-682 -568 -993 -171 -201 -291 -292 -389 -292 -34 0 -49 6 -77 33 -46 42 -57
100 -45 228 18 185 9 175 -26 -27 -96 -575 -184 -836 -381 -1134 -99 -150
-179 -246 -333 -401 -160 -160 -293 -272 -513 -429 -504 -361 -933 -558 -1302
-600 -297 -33 -625 31 -785 156 -19 14 -26 23 -15 19 182 -65 433 21 476 164
16 55 5 105 -32 135 -39 33 -79 33 -108 2 -26 -28 -25 -69 2 -74 15 -3 18 1
13 15 -4 13 1 26 15 38 19 18 23 18 47 4 57 -32 54 -117 -6 -177 -131 -131
-405 -133 -515 -3 -84 100 -112 245 -87 458 9 78 -3 209 -26 292 -6 21 -2 19
33 -16 60 -60 101 -68 353 -67 246 0 351 14 520 70 146 49 318 145 420 235 37
33 24 26 -75 -41 -91 -62 -289 -156 -390 -185 -154 -45 -272 -59 -490 -59
-197 -1 -201 -1 -257 26 -82 38 -101 71 -94 168 2 41 8 86 12 99 5 16 4 22 -3
18 -11 -7 -40 -109 -45 -156 -2 -13 -32 61 -72 175 -75 217 -243 649 -282 725
-15 31 -20 50 -13 54 12 8 34 -18 49 -60 36 -96 70 -129 143 -141 33 -6 41
-13 62 -54 30 -60 113 -283 154 -416 41 -131 57 -147 153 -152 129 -8 468 28
648 68 267 59 529 194 729 374 159 143 310 342 404 531 51 102 104 264 114
343 10 85 23 70 23 -26 0 -172 -55 -393 -149 -596 -23 -49 -39 -91 -37 -94 8
-7 114 219 140 298 13 41 32 109 41 150 20 95 31 332 17 383 -15 54 3 46 39
-18 36 -64 46 -71 24 -17 -28 65 -58 100 -128 146 -67 45 -71 46 -147 46 -44
0 -82 -4 -85 -10 -4 -6 14 -10 48 -10 96 0 150 -19 94 -34 -13 -3 -59 -36
-102 -73 -306 -266 -408 -339 -598 -435 -209 -104 -360 -146 -627 -173 -197
-19 -222 -26 -333 -83 -91 -46 -94 -47 -192 -48 -103 -2 -153 -15 -204 -55
-61 -48 -179 7 -181 83 0 25 67 96 113 119 34 18 50 20 136 14 110 -8 134 -1
205 62 97 87 216 111 411 81 319 -50 598 -1 853 148 77 46 37 37 -64 -14 -181
-90 -321 -123 -524 -125 -88 -1 -173 5 -245 17 -121 20 -216 18 -300 -8 -49
-15 -88 -38 -190 -112 -49 -35 -52 -36 -110 -28 -130 16 -198 -4 -267 -80
l-38 -41 0 55 c0 67 14 90 78 127 36 22 60 28 104 28 39 0 54 3 47 10 -18 18
-112 9 -158 -14 -23 -12 -75 -55 -114 -95 -79 -80 -111 -100 -174 -111 -54 -9
-55 4 -2 28 24 12 68 51 111 100 90 102 115 123 169 142 46 17 89 13 127 -12
36 -23 37 -8 2 17 -81 57 -192 25 -280 -81 l-49 -59 -24 37 c-131 208 -181
309 -206 408 -44 179 -10 341 126 607 39 75 77 154 86 176 13 33 20 39 37 35
23 -6 110 24 110 38 0 12 2 12 -53 -7 -63 -21 -89 -8 -85 44 l3 37 66 -3 c62
-4 75 0 200 53 194 83 209 88 209 68 0 -15 -57 -127 -289 -573 -50 -96 -105
-213 -122 -260 -18 -47 -40 -106 -50 -132 -26 -64 -24 -113 6 -164 21 -35 39
-50 103 -81 90 -44 161 -49 250 -19 75 25 86 14 79 -78 -4 -62 -3 -67 9 -45
18 33 17 100 -2 128 -16 22 -16 24 2 34 10 6 42 32 70 59 28 26 59 49 70 49
17 1 17 2 2 6 -62 16 62 133 142 133 25 0 25 -8 3 -33 -17 -19 -17 -19 7 -12
70 21 90 34 90 59 0 48 -72 61 -146 27 -56 -25 -131 -99 -139 -136 -4 -17 -8
-35 -10 -41 -7 -23 -129 -104 -178 -119 -163 -48 -278 10 -309 157 -22 107 -6
146 318 778 233 453 273 632 195 868 -46 139 -167 332 -257 411 -91 80 -187
91 -271 32 -34 -24 -44 -28 -38 -14 7 19 32 119 84 340 44 185 83 296 160 458
186 388 482 734 811 948 241 156 561 281 810 316 41 6 86 13 100 15 65 9 267
5 375 -9z m3797 -314 c77 -26 107 -44 176 -98 210 -169 315 -425 283 -690 -11
-89 -16 -113 -86 -368 -41 -151 -54 -281 -36 -367 16 -75 62 -165 108 -213
l36 -37 -34 6 c-19 4 -71 25 -115 47 -92 44 -166 114 -203 195 -22 46 -27 77
-51 329 -16 175 -65 379 -131 551 -66 172 -200 408 -301 526 -31 37 -31 38
-12 59 64 71 246 101 366 60z m-5977 -1741 c3 -6 -1 -7 -9 -4 -18 7 -21 14 -7
14 6 0 13 -4 16 -10z m114 -33 c24 -16 46 -38 49 -49 2 -11 15 -23 27 -28 48
-18 130 -165 186 -335 43 -130 47 -268 11 -383 l-23 -72 -42 29 c-23 16 -67
36 -97 45 -126 38 -198 14 -403 -130 -20 -15 -40 -24 -43 -21 -3 3 1 31 10 61
11 37 13 62 7 73 -16 31 -71 226 -83 292 -17 100 2 188 58 272 75 114 168 185
256 197 30 4 38 8 33 20 -5 13 -3 13 13 -1 29 -26 38 -20 12 8 -13 14 -20 25
-16 25 4 0 21 -14 37 -31 16 -18 32 -29 36 -25 10 10 -28 46 -77 72 -25 14
-34 22 -20 18 14 -4 45 -20 69 -37z m-109 2 c19 -11 26 -17 15 -14 -62 21 -91
26 -119 21 -22 -4 -27 -3 -16 4 24 16 82 11 120 -11z m35 3 c-3 -3 -11 0 -18
7 -9 10 -8 11 6 5 10 -3 15 -9 12 -12z m-54 -27 c33 -15 33 -16 4 -8 -16 4
-55 7 -85 7 -35 -1 -47 2 -35 7 33 13 81 10 116 -6z m-33 -22 c-15 -2 -42 -2
-60 0 -18 2 -6 4 27 4 33 0 48 -2 33 -4z m-113 -43 c-28 -12 -37 -12 -30 0 3
6 16 10 28 9 21 0 21 -1 2 -9z m50 0 c-3 -5 -11 -10 -16 -10 -6 0 -7 5 -4 10
3 6 11 10 16 10 6 0 7 -4 4 -10z m-40 -41 c-4 -6 -14 -8 -22 -5 -9 4 -22 1
-29 -5 -9 -7 -14 -8 -14 -1 0 13 17 20 48 21 14 1 21 -3 17 -10z m-35 -27 c0
-4 -19 -30 -42 -57 -23 -28 -38 -42 -35 -32 4 10 7 23 7 28 0 5 6 9 13 9 6 0
20 14 29 30 17 29 28 38 28 22z m-48 -34 c-7 -7 -12 -8 -12 -2 0 14 12 26 19
19 2 -3 -1 -11 -7 -17z m416 -675 c2 -12 -6 -31 -17 -42 -12 -12 -21 -16 -21
-11 0 16 -17 12 -24 -6 -4 -10 -2 -13 6 -8 8 5 9 1 4 -12 -4 -10 -4 -15 0 -11
4 4 14 1 22 -6 13 -10 15 -9 8 7 -6 19 -6 19 12 3 30 -27 79 -22 113 12 16 16
29 37 29 46 0 14 3 15 15 5 57 -47 -66 -117 -150 -86 -16 6 -15 4 5 -14 l25
-21 -24 6 c-16 5 -21 4 -17 -4 4 -6 2 -11 -4 -11 -7 0 -10 6 -7 14 3 8 -1 20
-9 26 -8 7 -14 9 -14 4 0 -5 -7 0 -15 10 -20 27 -19 81 3 106 22 26 56 22 60
-7z m-134 -7 c-9 -37 15 -106 47 -139 17 -16 29 -30 27 -31 -21 -14 -153 -66
-179 -71 -53 -9 -101 20 -115 72 l-12 41 65 53 c60 48 144 99 165 99 5 0 6
-11 2 -24z m81 -126 c10 -11 16 -20 13 -20 -3 0 -13 9 -23 20 -10 11 -16 20
-13 20 3 0 13 -9 23 -20z m2084 -1109 c34 -157 25 -193 -60 -261 -56 -44 -94
-58 -118 -43 -17 11 -55 122 -66 195 -7 45 -5 48 36 94 24 26 66 65 94 87 l49
39 27 -30 c15 -17 32 -52 38 -81z m-2339 -20 c0 -3 -4 -1 -9 5 -5 5 -12 27
-15 49 l-6 40 15 -45 c8 -25 15 -47 15 -49z m4550 -107 c37 -646 192 -1161
543 -1799 75 -137 136 -228 236 -353 43 -53 86 -112 95 -130 95 -186 -38 -563
-335 -945 -90 -115 -322 -345 -464 -458 -568 -452 -1219 -709 -1798 -709 -463
0 -799 161 -946 452 -87 174 -89 319 -6 483 25 50 49 108 53 129 l7 39 28 -41
c54 -82 208 -173 358 -211 246 -63 586 -38 899 66 147 49 404 176 545 271 110
73 332 253 351 284 4 7 -37 -26 -93 -74 -339 -288 -705 -470 -1093 -540 -158
-29 -428 -31 -550 -5 -172 37 -343 128 -403 214 -28 39 -29 45 -32 174 -4 185
-41 342 -116 491 -36 72 -118 162 -171 189 -21 11 -38 21 -38 23 0 2 39 16 88
31 320 99 761 344 1153 641 405 307 677 608 843 933 109 214 161 367 220 651
l33 155 17 -33 c25 -48 70 -72 137 -72 91 0 144 33 294 185 72 72 131 131 133
130 1 -1 6 -78 12 -171z m-2462 -34 c13 -36 26 -96 29 -133 6 -65 5 -69 -22
-98 -16 -16 -57 -47 -91 -70 -47 -31 -70 -40 -96 -37 l-33 3 -22 100 c-35 155
-39 144 79 230 57 42 110 74 118 73 8 -2 25 -32 38 -68z m-280 -127 c18 -46
42 -169 42 -213 0 -54 -27 -81 -136 -132 -112 -52 -147 -58 -168 -27 -19 30
-58 194 -54 229 2 20 15 30 58 50 30 13 96 46 145 72 50 26 93 47 96 47 4 1
11 -11 17 -26z m552 1 c0 -21 -140 -255 -149 -249 -5 2 -16 29 -25 59 -17 52
-17 57 0 92 24 50 129 127 155 113 11 -5 19 -12 19 -15z m-891 -160 c17 -39
41 -158 41 -208 0 -56 -15 -69 -126 -106 -119 -41 -193 -49 -216 -24 -15 18
-38 110 -52 214 -10 68 1 77 134 105 63 13 129 28 145 34 48 15 61 13 74 -15z
m680 1 c11 -14 24 -49 30 -77 l11 -51 -42 -56 c-71 -94 -183 -205 -200 -199
-8 4 -20 27 -27 52 -6 25 -13 46 -16 46 -3 0 -2 -33 1 -73 l7 -73 -64 -51
c-142 -113 -230 -154 -257 -120 -5 6 -20 69 -33 138 -30 170 -29 172 136 245
66 30 128 54 137 54 20 0 28 -11 50 -70 l17 -45 -6 70 c-5 62 -3 73 17 98 12
15 38 36 58 46 21 11 61 35 91 55 29 20 57 36 61 36 5 0 18 -11 29 -25z
m-2069 -37 c0 -30 -1 -31 -16 -16 -9 9 -14 24 -11 32 11 27 27 17 27 -16z
m998 -38 c16 -26 52 -199 52 -250 0 -52 -22 -67 -126 -89 -221 -47 -225 -45
-260 110 -27 116 -29 142 -14 170 24 45 129 76 265 78 60 1 72 -2 83 -19z
m-396 -97 c14 -17 68 -219 68 -256 0 -26 -39 -44 -122 -57 -92 -13 -113 -9
-133 30 -22 42 -67 237 -60 259 5 16 14 18 73 14 47 -4 77 -1 102 10 46 20 54
20 72 0z m-281 -55 c6 -11 25 -71 41 -132 17 -61 32 -119 35 -128 8 -27 -32
-23 -52 5 -16 22 -58 147 -74 217 -13 56 25 85 50 38z m-45 -131 c17 -56 34
-111 38 -122 l8 -20 -17 20 c-13 16 -38 89 -71 208 -3 9 -2 17 3 17 4 0 22
-46 39 -103z m1148 27 c9 -8 16 -17 16 -19 0 -1 9 -47 20 -100 28 -137 27
-188 -5 -214 -29 -22 -153 -71 -232 -91 -93 -24 -109 1 -135 213 -16 136 -13
140 158 188 151 43 158 44 178 23z m-373 -121 c13 -34 49 -235 49 -272 -1 -58
-51 -79 -237 -96 -69 -7 -72 -6 -88 18 -21 32 -39 101 -55 209 -15 99 -6 127
38 129 15 0 63 9 107 18 44 10 101 19 128 20 43 1 48 -1 58 -26z m-339 -183
c16 -74 27 -148 26 -165 -3 -30 -3 -30 -85 -39 -112 -12 -126 1 -163 156 -22
92 -26 153 -9 163 18 12 102 23 153 22 l49 -2 29 -135z m-270 62 c4 -24 19
-81 33 -127 28 -93 32 -145 11 -145 -22 0 -35 23 -61 111 -50 175 -52 213 -11
207 16 -2 22 -13 28 -46z m-37 -167 c6 -14 5 -17 -3 -10 -16 16 -43 105 -48
160 -3 42 0 36 20 -40 13 -49 27 -99 31 -110z"/>
<path d="M4785 8704 c-173 -31 -348 -105 -468 -200 -75 -59 -168 -173 -212
-259 -32 -64 -81 -223 -71 -232 2 -2 16 33 31 79 15 46 41 109 57 141 29 58
45 76 32 35 -25 -78 -33 -111 -25 -103 5 6 18 43 30 84 11 41 24 77 29 80 5 3
15 17 21 29 7 13 15 21 18 19 2 -3 -2 -18 -11 -34 -20 -40 -55 -133 -50 -133
3 0 12 17 20 38 30 73 73 153 98 182 33 40 43 38 13 -2 -30 -40 -90 -158 -84
-165 3 -2 8 5 12 16 3 12 10 19 14 17 4 -3 8 1 8 8 0 21 60 118 100 162 21 22
32 33 25 23 -8 -10 -15 -28 -17 -41 -2 -12 -6 -38 -11 -57 -5 -25 -4 -32 4
-27 7 4 12 14 12 22 0 26 62 132 97 166 18 17 33 27 33 22 0 -6 -14 -23 -31
-40 -30 -29 -60 -77 -73 -121 -10 -33 10 -28 22 5 12 34 131 192 144 192 12 0
0 -16 -54 -77 -43 -48 -86 -125 -64 -117 7 3 30 29 49 57 20 29 53 65 74 81
28 22 21 12 -25 -38 -35 -37 -61 -70 -59 -72 9 -10 39 10 47 32 9 23 92 94
152 128 l33 19 -19 -21 c-11 -12 -23 -22 -28 -22 -19 0 -87 -55 -104 -84 -17
-28 -16 -29 2 -21 78 33 236 81 324 96 104 19 307 26 395 12 22 -3 56 -6 77
-7 20 0 34 -4 33 -7 -2 -3 19 -11 48 -18 107 -27 273 -106 375 -178 34 -24 62
-42 62 -40 0 6 -161 131 -225 174 -255 171 -582 246 -860 197z m145 -24 c-8
-5 -19 -10 -25 -10 -5 0 -3 5 5 10 8 5 20 10 25 10 6 0 3 -5 -5 -10z m-101 -3
c-2 -2 -22 -14 -44 -27 -32 -19 -37 -20 -25 -6 8 10 23 22 35 26 20 9 42 13
34 7z m196 -21 c-33 -13 -76 -33 -95 -45 -41 -24 -61 -28 -39 -6 16 17 155 74
179 74 8 0 -12 -10 -45 -23z m-86 1 c-16 -13 -79 -48 -79 -44 0 7 63 47 74 47
5 0 7 -1 5 -3z m184 -4 c-7 -2 -19 -2 -25 0 -7 3 -2 5 12 5 14 0 19 -2 13 -5z
m144 1 c-7 -7 -122 -33 -177 -40 -65 -8 7 17 90 31 94 16 95 16 87 9z m-588
-23 c-13 -10 -35 -23 -49 -30 -19 -10 -17 -5 10 18 19 17 41 31 49 31 8 0 4
-8 -10 -19z m126 -1 c-7 -12 -85 -53 -85 -45 0 6 72 54 83 54 5 1 5 -4 2 -9z
m225 -4 c0 -2 -15 -9 -32 -15 -30 -10 -31 -9 -14 4 18 14 46 20 46 11z m227
-2 c-3 -3 -12 -4 -19 -1 -8 3 -5 6 6 6 11 1 17 -2 13 -5z m-450 -29 c-25 -22
-47 -32 -47 -21 0 5 63 46 70 46 3 -1 -8 -12 -23 -25z m398 15 c-27 -12 -43
-12 -25 0 8 5 22 9 30 9 10 0 8 -3 -5 -9z m195 0 c0 -6 -30 -9 -72 -8 -67 1
-69 2 -28 8 70 11 100 11 100 0z m-660 -45 c-7 -9 -15 -13 -19 -10 -3 3 1 10
9 15 21 14 24 12 10 -5z m-100 -25 c-12 -16 -26 -30 -33 -30 -6 0 2 14 18 30
16 17 30 30 33 30 2 0 -6 -13 -18 -30z m60 27 c0 -2 -10 -12 -22 -23 l-23 -19
19 23 c18 21 26 27 26 19z m817 -13 c-3 -3 -12 -4 -19 -1 -8 3 -5 6 6 6 11 1
17 -2 13 -5z"/>
<path d="M4322 8423 c-28 -41 -62 -114 -49 -107 30 17 46 39 53 68 3 17 11 37
17 44 5 7 7 15 5 18 -3 3 -15 -7 -26 -23z m-19 -68 c-3 -9 -8 -14 -10 -11 -3
3 -2 9 2 15 9 16 15 13 8 -4z"/>
<path d="M4820 7840 c-169 -21 -324 -113 -411 -242 -50 -72 -61 -98 -100 -233
-16 -59 -33 -114 -35 -123 -5 -14 -3 -14 6 1 6 10 27 66 46 125 43 133 87 211
158 284 178 182 450 218 751 101 167 -64 220 -81 270 -87 46 -5 44 -4 -22 13
-39 11 -118 40 -175 64 -133 58 -219 84 -320 97 -89 11 -86 11 -168 0z"/>
<path d="M5748 7604 c-146 -61 -177 -64 -683 -54 -185 4 -247 -5 -367 -56 -79
-33 -178 -100 -178 -120 0 -8 -13 -34 -29 -57 -16 -24 -36 -60 -45 -82 -9 -22
-35 -59 -58 -82 -26 -27 -39 -47 -35 -57 9 -24 33 -19 84 16 68 46 127 65 296
94 316 55 471 109 662 234 59 39 103 59 169 77 83 22 256 95 256 107 0 9 -9 6
-72 -20z m-720 -132 c3 -32 3 -33 -47 -48 -29 -9 33 -56 81 -61 40 -5 49 -2
78 24 26 23 34 38 34 66 1 38 10 48 19 23 7 -18 -26 -116 -43 -126 -14 -9 -95
-2 -130 11 -32 12 -70 67 -70 102 0 19 7 30 23 37 37 15 52 7 55 -28z m-160
-31 c1 -59 21 -102 63 -133 l31 -23 -54 -13 c-66 -15 -340 -72 -350 -72 -11 0
-38 56 -38 79 0 26 53 86 102 117 46 29 47 29 41 4 -7 -26 4 -25 46 3 59 38
76 47 92 47 9 0 19 9 22 20 3 12 14 20 25 20 17 0 20 -7 20 -49z m352 10 c0
-16 -9 -39 -19 -52 l-20 -24 15 44 c8 24 13 50 10 58 -3 8 -1 11 4 8 6 -3 10
-19 10 -34z m25 -14 c-4 -20 -14 -44 -22 -54 -13 -17 -14 -16 -8 7 4 14 10 42
12 63 3 25 9 35 15 29 5 -5 6 -25 3 -45z m135 46 c0 -11 -100 -75 -100 -64 0
5 3 23 6 40 6 29 9 31 50 31 24 0 44 -3 44 -7z m-414 -90 c36 -44 83 -65 126
-57 23 5 23 4 -1 -6 -16 -7 -35 -7 -61 0 -37 10 -91 45 -89 58 3 20 -2 32 -11
27 -6 -4 -10 7 -9 27 1 21 3 26 6 13 3 -11 21 -39 39 -62z m-32 4 c4 4 4 0 1
-8 -7 -19 47 -69 75 -69 10 0 22 -4 25 -10 11 -17 -28 -11 -63 10 -34 21 -72
74 -72 100 1 9 5 7 13 -8 7 -12 16 -19 21 -15z m-425 -183 c6 -15 10 -28 9
-29 -12 -11 -109 -55 -107 -48 8 18 73 103 79 103 4 0 12 -12 19 -26z"/>
<path d="M5136 7365 c-11 -8 -15 -15 -9 -15 6 0 16 7 23 15 16 19 11 19 -14 0z"/>
<path d="M7963 7446 c-62 -20 -137 -71 -188 -128 -130 -145 -206 -400 -149
-499 23 -39 65 -63 94 -54 24 8 56 52 46 63 -4 4 -12 -1 -17 -11 -14 -24 -64
-22 -88 4 -24 26 -34 82 -23 129 l9 35 7 -32 c4 -17 13 -37 21 -43 11 -9 17
-5 30 20 9 18 31 38 51 46 68 29 127 -21 140 -120 8 -58 -11 -190 -43 -290
-36 -114 -36 -114 -18 -84 8 15 29 69 46 120 68 209 40 384 -65 403 -41 8
-100 -15 -116 -45 -19 -35 -34 -8 -35 58 0 80 32 144 88 171 23 12 34 21 24
21 -10 0 -28 -5 -39 -11 -20 -11 -20 -11 -2 22 28 50 133 153 182 178 23 12
62 24 87 28 39 5 45 3 45 -13 0 -17 1 -17 14 1 14 19 15 19 35 1 41 -37 54
-114 49 -290 -6 -170 -31 -315 -85 -476 -48 -147 -222 -474 -274 -517 -8 -6
-30 -13 -49 -15 -27 -2 -39 -10 -55 -37 -30 -51 -99 -117 -128 -123 -68 -13
-125 62 -113 148 15 115 48 173 110 194 69 22 119 106 119 200 0 61 -15 97
-63 150 -36 40 -50 69 -50 108 0 19 -3 23 -11 15 -22 -22 0 -92 46 -143 50
-56 64 -111 46 -176 -18 -67 -46 -101 -108 -132 -46 -22 -62 -37 -80 -72 -58
-113 -48 -258 20 -301 66 -41 169 -1 202 79 20 46 43 72 66 72 13 0 17 -5 12
-17 -14 -39 52 35 109 122 165 253 265 521 304 815 42 322 -34 481 -203 426z"/>
<path d="M6034 6426 c-37 -17 -74 -61 -74 -90 0 -51 52 -84 80 -51 16 19 4 35
-26 35 -44 0 -19 57 35 80 84 34 163 -35 163 -141 -1 -116 -102 -199 -241
-199 -82 0 -129 17 -270 98 -228 131 -305 114 -543 -122 -156 -155 -218 -206
-308 -251 -121 -61 -166 -69 -330 -60 -80 5 -197 9 -260 9 -112 1 -117 0 -190
-35 -85 -40 -130 -75 -171 -133 -44 -60 -34 -63 14 -4 53 65 151 119 262 143
74 17 84 17 204 -1 352 -51 483 0 797 308 168 165 209 190 304 191 61 0 120
-24 267 -111 187 -111 397 -79 475 72 78 148 -47 323 -188 262z"/>
<path d="M4090 6316 c-54 -14 -106 -44 -140 -82 -22 -23 -19 -22 25 8 62 43
104 58 167 58 62 0 106 -19 146 -61 43 -45 55 -87 50 -169 -3 -61 -8 -76 -43
-127 -52 -75 -109 -109 -221 -133 l-89 -20 72 5 c143 10 235 64 285 170 68
144 8 310 -126 350 -58 18 -66 18 -126 1z"/>
<path d="M5299 6052 c-24 -26 -78 -88 -119 -136 -141 -166 -286 -265 -446
-306 -94 -24 -192 -25 -344 -4 -145 20 -273 15 -352 -15 -63 -24 -150 -79
-156 -98 -2 -7 20 3 48 22 108 73 269 94 455 60 117 -21 266 -19 359 5 177 45
312 146 484 365 52 66 102 128 110 138 34 39 2 14 -39 -31z"/>
<path d="M3433 7256 c-23 -7 -57 -23 -77 -35 -46 -29 -118 -110 -133 -149 -16
-44 -10 -40 20 11 58 99 163 162 267 162 72 -1 123 -22 185 -76 44 -39 46 -24
3 19 -67 64 -184 94 -265 68z"/>
<path d="M7159 3613 c-285 -367 -718 -702 -1060 -821 -165 -58 -276 -76 -459
-76 -174 0 -246 10 -361 49 -38 12 -69 21 -69 19 0 -10 100 -47 180 -67 123
-31 402 -31 541 0 401 90 852 405 1200 841 62 77 123 162 116 162 -2 0 -42
-48 -88 -107z"/>
</g>
</svg>
